<?xml version="1.0" encoding="UTF-8" standalone="no"?>
<!-- Created with Inkscape (http://www.inkscape.org/) -->

<svg
   xmlns:dc="http://purl.org/dc/elements/1.1/"
   xmlns:cc="http://creativecommons.org/ns#"
   xmlns:rdf="http://www.w3.org/1999/02/22-rdf-syntax-ns#"
   xmlns:svg="http://www.w3.org/2000/svg"
   xmlns="http://www.w3.org/2000/svg"
   xmlns:xlink="http://www.w3.org/1999/xlink"
   xmlns:sodipodi="http://sodipodi.sourceforge.net/DTD/sodipodi-0.dtd"
   xmlns:inkscape="http://www.inkscape.org/namespaces/inkscape"
   width="537.76001"
   height="133.88499"
   id="svg2"
   sodipodi:version="0.32"
   inkscape:version="0.48.5 r10040"
   version="1.0"
   sodipodi:docname="pydgin_logo.svg"
   inkscape:output_extension="org.inkscape.output.svg.inkscape">
  <sodipodi:namedview
     id="base"
     pagecolor="#ffffff"
     bordercolor="#666666"
     borderopacity="1.0"
     gridtolerance="10"
     guidetolerance="10000"
     objecttolerance="10000"
     inkscape:pageopacity="1"
     inkscape:pageshadow="2"
     inkscape:zoom="1.7976226"
     inkscape:cx="154.73426"
     inkscape:cy="100.49891"
     inkscape:document-units="px"
     inkscape:current-layer="g3892"
     showgrid="true"
     inkscape:object-paths="false"
     inkscape:grid-bbox="false"
     inkscape:grid-points="true"
     inkscape:guide-bbox="true"
     width="900px"
     height="700px"
     inkscape:showpageshadow="false"
     inkscape:window-width="1440"
     inkscape:window-height="855"
     inkscape:window-x="0"
     inkscape:window-y="0"
     showguides="true"
     inkscape:window-maximized="0"
     fit-margin-left="5"
     fit-margin-top="5"
     fit-margin-right="5"
     fit-margin-bottom="5">
    <inkscape:grid
       enabled="true"
       visible="true"
       empspacing="5"
       empopacity="0.4"
       opacity="0.2"
       empcolor="#0000ff"
       color="#0000ff"
       spacingy="10px"
       spacingx="10px"
       originy="-7.8749853px"
       originx="3.65625px"
       type="xygrid"
       id="GridFromPre046Settings"
       snapvisiblegridlinesonly="true" />
  </sodipodi:namedview>
  <defs
     id="defs4">
    <marker
       style="overflow:visible"
       id="TriangleOutL"
       refX="0"
       refY="0"
       orient="auto"
       inkscape:stockid="TriangleOutL">
      <path
         transform="scale(0.8,0.8)"
         style="fill-rule:evenodd;stroke:#000000;stroke-width:1pt;marker-start:none"
         d="m 5.77,0 -8.65,5 0,-10 8.65,5 z"
         id="path3657"
         inkscape:connector-curvature="0" />
    </marker>
    <inkscape:perspective
       id="perspective7"
       inkscape:persp3d-origin="450 : 233.33333 : 1"
       inkscape:vp_z="900 : 350 : 1"
       inkscape:vp_y="0 : 1000 : 0"
       inkscape:vp_x="0 : 350 : 1"
       sodipodi:type="inkscape:persp3d" />
    <marker
       style="overflow:visible"
       id="TriangleOutLw"
       refX="0"
       refY="0"
       orient="auto"
       inkscape:stockid="TriangleOutLw">
      <path
         transform="scale(0.8,0.8)"
         style="fill:#ff0000;fill-rule:evenodd;stroke:#ff0000;stroke-width:1pt;marker-start:none"
         d="m 5.77,0 -8.65,5 0,-10 8.65,5 z"
         id="path4295"
         inkscape:connector-curvature="0" />
    </marker>
    <radialGradient
       r="29.036913"
       fy="132.28575"
       fx="61.518883"
       cy="132.28575"
       cx="61.518883"
       gradientTransform="matrix(2.382716e-8,-0.296405,1.43676,4.683673e-7,365.22453,563.45016)"
       gradientUnits="userSpaceOnUse"
       id="radialGradient1480"
       xlink:href="#linearGradient2795"
       inkscape:collect="always" />
    <linearGradient
       y2="114.39767"
       x2="135.66525"
       y1="20.603781"
       x1="26.648937"
       gradientTransform="matrix(0.562541,0,0,0.567972,353.05599,328.97139)"
       gradientUnits="userSpaceOnUse"
       id="linearGradient1478"
       xlink:href="#linearGradient4689"
       inkscape:collect="always" />
    <linearGradient
       y2="137.27299"
       x2="112.03144"
       y1="192.35176"
       x1="150.96111"
       gradientTransform="matrix(0.562541,0,0,0.567972,353.05599,328.97139)"
       gradientUnits="userSpaceOnUse"
       id="linearGradient1475"
       xlink:href="#linearGradient4671"
       inkscape:collect="always" />
    <radialGradient
       gradientUnits="userSpaceOnUse"
       gradientTransform="matrix(1,0,0,0.177966,0,108.7434)"
       r="29.036913"
       fy="132.28575"
       fx="61.518883"
       cy="132.28575"
       cx="61.518883"
       id="radialGradient2801"
       xlink:href="#linearGradient2795"
       inkscape:collect="always" />
    <linearGradient
       y2="76.313133"
       x2="26.670298"
       y1="76.176224"
       x1="172.94208"
       gradientTransform="matrix(0.562541,0,0,0.567972,-11.5974,-7.60954)"
       gradientUnits="userSpaceOnUse"
       id="linearGradient2258"
       xlink:href="#linearGradient4689"
       inkscape:collect="always" />
    <linearGradient
       y2="144.75717"
       x2="-65.308502"
       y1="144.75717"
       x1="224.23996"
       gradientTransform="matrix(0.562541,0,0,0.567972,-11.5974,-7.60954)"
       gradientUnits="userSpaceOnUse"
       id="linearGradient2255"
       xlink:href="#linearGradient4671"
       inkscape:collect="always" />
    <linearGradient
       y2="144.75717"
       x2="-65.308502"
       y1="144.75717"
       x1="224.23996"
       gradientTransform="translate(100.2702,99.61116)"
       gradientUnits="userSpaceOnUse"
       id="linearGradient2250"
       xlink:href="#linearGradient4671"
       inkscape:collect="always" />
    <linearGradient
       y2="76.313133"
       x2="26.670298"
       y1="77.475983"
       x1="172.94208"
       gradientTransform="translate(100.2702,99.61116)"
       gradientUnits="userSpaceOnUse"
       id="linearGradient2248"
       xlink:href="#linearGradient4689"
       inkscape:collect="always" />
    <linearGradient
       y2="144.75717"
       x2="-65.308502"
       y1="144.75717"
       x1="224.23996"
       gradientTransform="translate(100.2702,99.61116)"
       gradientUnits="userSpaceOnUse"
       id="linearGradient2589"
       xlink:href="#linearGradient4671"
       inkscape:collect="always" />
    <linearGradient
       y2="76.313133"
       x2="26.670298"
       y1="77.475983"
       x1="172.94208"
       gradientTransform="translate(100.2702,99.61116)"
       gradientUnits="userSpaceOnUse"
       id="linearGradient2587"
       xlink:href="#linearGradient4689"
       inkscape:collect="always" />
    <linearGradient
       gradientTransform="translate(100.2702,99.61116)"
       gradientUnits="userSpaceOnUse"
       xlink:href="#linearGradient4689"
       id="linearGradient2990"
       y2="76.313133"
       x2="26.670298"
       y1="77.475983"
       x1="172.94208" />
    <linearGradient
       gradientTransform="translate(100.2702,99.61116)"
       gradientUnits="userSpaceOnUse"
       xlink:href="#linearGradient4671"
       id="linearGradient2987"
       y2="144.75717"
       x2="-65.308502"
       y1="144.75717"
       x1="224.23996" />
    <linearGradient
       id="linearGradient4689">
      <stop
         id="stop4691"
         offset="0"
         style="stop-color:#5a9fd4;stop-opacity:1;" />
      <stop
         id="stop4693"
         offset="1"
         style="stop-color:#306998;stop-opacity:1;" />
    </linearGradient>
    <linearGradient
       id="linearGradient4671">
      <stop
         id="stop4673"
         offset="0"
         style="stop-color:#ffd43b;stop-opacity:1;" />
      <stop
         id="stop4675"
         offset="1"
         style="stop-color:#ffe873;stop-opacity:1" />
    </linearGradient>
    <linearGradient
       id="linearGradient3236">
      <stop
         id="stop3244"
         offset="0"
         style="stop-color:#f4f4f4;stop-opacity:1" />
      <stop
         id="stop3240"
         offset="1"
         style="stop-color:white;stop-opacity:1" />
    </linearGradient>
    <linearGradient
       id="linearGradient3676">
      <stop
         id="stop3678"
         offset="0"
         style="stop-color:#b2b2b2;stop-opacity:0.5;" />
      <stop
         id="stop3680"
         offset="1"
         style="stop-color:#b3b3b3;stop-opacity:0;" />
    </linearGradient>
    <linearGradient
       id="linearGradient2787">
      <stop
         id="stop2789"
         offset="0"
         style="stop-color:#7f7f7f;stop-opacity:0.5;" />
      <stop
         id="stop2791"
         offset="1"
         style="stop-color:#7f7f7f;stop-opacity:0;" />
    </linearGradient>
    <linearGradient
       id="linearGradient2795">
      <stop
         id="stop2797"
         offset="0"
         style="stop-color:#b8b8b8;stop-opacity:0.49803922;" />
      <stop
         id="stop2799"
         offset="1"
         style="stop-color:#7f7f7f;stop-opacity:0;" />
    </linearGradient>
    <radialGradient
       inkscape:collect="always"
       xlink:href="#linearGradient2795"
       id="radialGradient3182"
       gradientUnits="userSpaceOnUse"
       gradientTransform="matrix(2.382716e-8,-0.296405,1.43676,4.683673e-7,365.22453,378.88955)"
       cx="61.518883"
       cy="132.28575"
       fx="61.518883"
       fy="132.28575"
       r="29.036913" />
    <linearGradient
       inkscape:collect="always"
       xlink:href="#linearGradient4671"
       id="linearGradient3187"
       gradientUnits="userSpaceOnUse"
       gradientTransform="matrix(0.562541,0,0,0.567972,417.76458,446.91717)"
       x1="150.96111"
       y1="192.35176"
       x2="112.03144"
       y2="137.27299" />
    <linearGradient
       inkscape:collect="always"
       xlink:href="#linearGradient4689"
       id="linearGradient3190"
       gradientUnits="userSpaceOnUse"
       gradientTransform="matrix(0.562541,0,0,0.567972,417.76458,446.91717)"
       x1="26.648937"
       y1="20.603781"
       x2="135.66525"
       y2="114.39767" />
    <linearGradient
       inkscape:collect="always"
       xlink:href="#linearGradient4689"
       id="linearGradient3262"
       gradientUnits="userSpaceOnUse"
       gradientTransform="matrix(0.562541,0,0,0.567972,353.05599,198.97139)"
       x1="26.648937"
       y1="20.603781"
       x2="135.66525"
       y2="114.39767" />
    <linearGradient
       inkscape:collect="always"
       xlink:href="#linearGradient4671"
       id="linearGradient3264"
       gradientUnits="userSpaceOnUse"
       gradientTransform="matrix(0.562541,0,0,0.567972,353.05599,198.97139)"
       x1="150.96111"
       y1="192.35176"
       x2="112.03144"
       y2="137.27299" />
    <radialGradient
       inkscape:collect="always"
       xlink:href="#linearGradient2795"
       id="radialGradient3266"
       gradientUnits="userSpaceOnUse"
       gradientTransform="matrix(2.382716e-8,-0.296405,1.43676,4.683673e-7,365.22453,402.86197)"
       cx="61.518883"
       cy="132.28575"
       fx="61.518883"
       fy="132.28575"
       r="29.036913" />
    <linearGradient
       inkscape:collect="always"
       xlink:href="#linearGradient4671"
       id="linearGradient3271"
       gradientUnits="userSpaceOnUse"
       gradientTransform="matrix(0.562541,0,0,0.567972,417.76458,446.91717)"
       x1="150.96111"
       y1="192.35176"
       x2="112.03144"
       y2="137.27299" />
    <linearGradient
       inkscape:collect="always"
       xlink:href="#linearGradient4689"
       id="linearGradient3274"
       gradientUnits="userSpaceOnUse"
       gradientTransform="matrix(0.562541,0,0,0.567972,417.76458,446.91717)"
       x1="26.648937"
       y1="20.603781"
       x2="135.66525"
       y2="114.39767" />
    <linearGradient
       inkscape:collect="always"
       xlink:href="#linearGradient4689"
       id="linearGradient3286"
       gradientUnits="userSpaceOnUse"
       gradientTransform="matrix(0.52340302,0,0,0.53060627,395.59629,439.46972)"
       x1="26.648937"
       y1="20.603781"
       x2="135.66525"
       y2="114.39767" />
    <linearGradient
       inkscape:collect="always"
       xlink:href="#linearGradient4671"
       id="linearGradient3288"
       gradientUnits="userSpaceOnUse"
       gradientTransform="matrix(0.52340302,0,0,0.53060627,395.59629,439.46972)"
       x1="150.96111"
       y1="192.35176"
       x2="112.03144"
       y2="137.27299" />
    <linearGradient
       inkscape:collect="always"
       xlink:href="#linearGradient4671"
       id="linearGradient3291"
       gradientUnits="userSpaceOnUse"
       gradientTransform="matrix(0.562541,0,0,0.56797199,417.76458,446.91715)"
       x1="150.96111"
       y1="192.35176"
       x2="112.03144"
       y2="137.27299" />
    <radialGradient
       inkscape:collect="always"
       xlink:href="#linearGradient2795"
       id="radialGradient3309"
       gradientUnits="userSpaceOnUse"
       gradientTransform="matrix(2.382716e-8,-0.296405,1.43676,4.683673e-7,-646.14881,-158.15386)"
       cx="61.518883"
       cy="132.28575"
       fx="61.518883"
       fy="132.28575"
       r="29.036913" />
  </defs>
  <metadata
     id="metadata7">
    <rdf:RDF>
      <cc:Work
         rdf:about="">
        <dc:format>image/svg+xml</dc:format>
        <dc:type
           rdf:resource="http://purl.org/dc/dcmitype/StillImage" />
        <dc:title></dc:title>
      </cc:Work>
    </rdf:RDF>
  </metadata>
  <g
     transform="translate(-45.34375,-657.24)"
     id="layer1"
     inkscape:groupmode="layer"
     inkscape:label="Both Dark"
     style="display:none">
    <rect
       y="190.71555"
       x="-682.31757"
       height="150.19838"
       width="509.56195"
       id="rect4699"
       style="fill:#000000;fill-opacity:1;stroke:#262626;stroke-width:1;stroke-miterlimit:4;stroke-opacity:1;stroke-dasharray:none;stroke-dashoffset:0" />
    <path
       style="fill:#440e62;fill-opacity:1;stroke:#440e62;stroke-width:7;stroke-miterlimit:4;stroke-opacity:1;stroke-dasharray:none"
       d="m 99,749 0,3.5 0,-13.5 0,-20 40,0 20,0 0,-20 c 0,-20 -7.69304,-29.99 -20,-30 -12.30423,0.48039 -20,5.0748 -20,15.90035 L 113.94755,689 119,689 l 0,10 -20,0 -40,0 c 15.870756,15.36202 10,51.47509 40,50 z"
       id="rect4623"
       inkscape:connector-curvature="0"
       sodipodi:nodetypes="ccccccccccccccc" />
    <path
       style="fill:#679801;fill-opacity:1;stroke:#679801;stroke-width:7;stroke-miterlimit:4;stroke-opacity:1;stroke-dasharray:none"
       d="m 159,749 15,0 c 25,1.08173 20.67308,-34.13025 35,-50 l -40,-0.0625 0,30.0625 -40,0 -20,0 0,20 10,0 -20,20 c 12.91151,14.79294 15.94486,10 35.90035,10 22.52289,-0.0957 19.69559,4.40406 34.09965,-10 l -20,-20 z"
       id="rect4635"
       inkscape:connector-curvature="0"
       sodipodi:nodetypes="cccccccccccccc" />
    <path
       transform="matrix(0.59230744,0,0,0.59230744,-19.499934,569.96159)"
       d="m 265.90909,190 c 0,3.2635 -2.64559,5.90909 -5.90909,5.90909 -3.2635,0 -5.90909,-2.64559 -5.90909,-5.90909 0,-3.2635 2.64559,-5.90909 5.90909,-5.90909 3.2635,0 5.90909,2.64559 5.90909,5.90909 z"
       sodipodi:ry="5.9090934"
       sodipodi:rx="5.9090934"
       sodipodi:cy="190"
       sodipodi:cx="260"
       id="path4647"
       style="fill:#ffffff;fill-opacity:1;stroke:#ffffff;stroke-width:3.37662482;stroke-miterlimit:4;stroke-opacity:1;stroke-dasharray:none"
       sodipodi:type="arc" />
  </g>
  <g
     style="display:none"
     inkscape:label="Both Dark copy"
     inkscape:groupmode="layer"
     id="g3842"
     transform="translate(-45.34375,-657.24)">
    <rect
       style="fill:#000000;fill-opacity:1;stroke:#262626;stroke-width:1;stroke-miterlimit:4;stroke-opacity:1;stroke-dasharray:none;stroke-dashoffset:0"
       id="rect3844"
       width="509.56195"
       height="150.19838"
       x="-682.31757"
       y="190.71555" />
    <path
       sodipodi:nodetypes="ccccccccccccccc"
       inkscape:connector-curvature="0"
       id="path3846"
       d="m 99,749 0,3.5 0,-13.5 0,-20 40,0 20,0 0,-20 c 0,-20 -7.69304,-29.99 -20,-30 -12.30423,0.48039 -20,5.0748 -20,15.90035 L 113.94755,689 119,689 l 0,10 -20,0 -40,0 c 15.870756,15.36202 10,51.47509 40,50 z"
       style="fill:#361d3a;fill-opacity:1;stroke:#361d3a;stroke-width:7;stroke-miterlimit:4;stroke-opacity:1;stroke-dasharray:none" />
    <path
       sodipodi:nodetypes="cccccccccccccc"
       inkscape:connector-curvature="0"
       id="path3848"
       d="m 159,749 15,0 c 25,1.08173 20.67308,-34.13025 35,-50 l -40,-0.0625 0,30.0625 -40,0 -20,0 0,20 10,0 -20,20 c 12.91151,14.79294 15.94486,10 35.90035,10 22.52289,-0.0957 19.69559,4.40406 34.09965,-10 l -20,-20 z"
       style="fill:#4db254;fill-opacity:1;stroke:#4eb154;stroke-width:7;stroke-miterlimit:4;stroke-opacity:1;stroke-dasharray:none" />
    <path
       sodipodi:type="arc"
       style="fill:#ffffff;fill-opacity:1;stroke:#ffffff;stroke-width:3.37662482;stroke-miterlimit:4;stroke-opacity:1;stroke-dasharray:none"
       id="path3850"
       sodipodi:cx="260"
       sodipodi:cy="190"
       sodipodi:rx="5.9090934"
       sodipodi:ry="5.9090934"
       d="m 265.90909,190 c 0,3.2635 -2.64559,5.90909 -5.90909,5.90909 -3.2635,0 -5.90909,-2.64559 -5.90909,-5.90909 0,-3.2635 2.64559,-5.90909 5.90909,-5.90909 3.2635,0 5.90909,2.64559 5.90909,5.90909 z"
       transform="matrix(0.59230744,0,0,0.59230744,-19.499934,569.96159)" />
  </g>
  <g
     transform="translate(-45.34375,-657.24)"
     id="g3852"
     inkscape:groupmode="layer"
     inkscape:label="Both Dark copy copy"
     style="display:none">
    <rect
       y="190.71555"
       x="-682.31757"
       height="150.19838"
       width="509.56195"
       id="rect3854"
       style="fill:#000000;fill-opacity:1;stroke:#262626;stroke-width:1;stroke-miterlimit:4;stroke-opacity:1;stroke-dasharray:none;stroke-dashoffset:0" />
    <path
       style="fill:#421b5a;fill-opacity:1;stroke:#421b5a;stroke-width:7;stroke-miterlimit:4;stroke-opacity:1;stroke-dasharray:none"
       d="m 99,749 0,3.5 0,-13.5 0,-20 40,0 20,0 0,-20 c 0,-20 -7.69304,-29.99 -20,-30 -12.30423,0.48039 -20,5.0748 -20,15.90035 L 113.94755,689 119,689 l 0,10 -20,0 -40,0 c 15.870756,15.36202 10,51.47509 40,50 z"
       id="path3856"
       inkscape:connector-curvature="0"
       sodipodi:nodetypes="ccccccccccccccc" />
    <path
       style="fill:#346702;fill-opacity:1;stroke:#346702;stroke-width:7;stroke-miterlimit:4;stroke-opacity:1;stroke-dasharray:none"
       d="m 159,749 15,0 c 25,1.08173 20.67308,-34.13025 35,-50 l -40,-0.0625 0,30.0625 -40,0 -20,0 0,20 10,0 -20,20 c 12.91151,14.79294 15.94486,10 35.90035,10 22.52289,-0.0957 19.69559,4.40406 34.09965,-10 l -20,-20 z"
       id="path3858"
       inkscape:connector-curvature="0"
       sodipodi:nodetypes="cccccccccccccc" />
    <path
       transform="matrix(0.59230744,0,0,0.59230744,-19.499934,569.96159)"
       d="m 265.90909,190 c 0,3.2635 -2.64559,5.90909 -5.90909,5.90909 -3.2635,0 -5.90909,-2.64559 -5.90909,-5.90909 0,-3.2635 2.64559,-5.90909 5.90909,-5.90909 3.2635,0 5.90909,2.64559 5.90909,5.90909 z"
       sodipodi:ry="5.9090934"
       sodipodi:rx="5.9090934"
       sodipodi:cy="190"
       sodipodi:cx="260"
       id="path3860"
       style="fill:#ffffff;fill-opacity:1;stroke:#ffffff;stroke-width:3.37662482;stroke-miterlimit:4;stroke-opacity:1;stroke-dasharray:none"
       sodipodi:type="arc" />
  </g>
  <g
     style="display:none"
     inkscape:label="Both Dark copy copy copy"
     inkscape:groupmode="layer"
     id="g3862"
     transform="translate(-45.34375,-657.24)">
    <rect
       style="fill:#000000;fill-opacity:1;stroke:#262626;stroke-width:1;stroke-miterlimit:4;stroke-opacity:1;stroke-dasharray:none;stroke-dashoffset:0"
       id="rect3864"
       width="509.56195"
       height="150.19838"
       x="-682.31757"
       y="190.71555" />
    <path
       sodipodi:nodetypes="ccccccccccccccc"
       inkscape:connector-curvature="0"
       id="path3866"
       d="m 99,749 0,3.5 0,-13.5 0,-20 40,0 20,0 0,-20 c 0,-20 -7.69304,-29.99 -20,-30 -12.30423,0.48039 -20,5.0748 -20,15.90035 L 113.94755,689 119,689 l 0,10 -20,0 -40,0 c 15.870756,15.36202 10,51.47509 40,50 z"
       style="fill:#3c285a;fill-opacity:1;stroke:#3c285a;stroke-width:7;stroke-miterlimit:4;stroke-opacity:1;stroke-dasharray:none" />
    <path
       sodipodi:nodetypes="cccccccccccccc"
       inkscape:connector-curvature="0"
       id="path3868"
       d="m 159,749 15,0 c 25,1.08173 20.67308,-34.13025 35,-50 l -40,-0.0625 0,30.0625 -40,0 -20,0 0,20 10,0 -20,20 c 12.91151,14.79294 15.94486,10 35.90035,10 22.52289,-0.0957 19.69559,4.40406 34.09965,-10 l -20,-20 z"
       style="fill:#aecb6e;fill-opacity:1;stroke:#aecb6d;stroke-width:7;stroke-miterlimit:4;stroke-opacity:1;stroke-dasharray:none" />
    <path
       sodipodi:type="arc"
       style="fill:#ffffff;fill-opacity:1;stroke:#ffffff;stroke-width:3.37662482;stroke-miterlimit:4;stroke-opacity:1;stroke-dasharray:none"
       id="path3870"
       sodipodi:cx="260"
       sodipodi:cy="190"
       sodipodi:rx="5.9090934"
       sodipodi:ry="5.9090934"
       d="m 265.90909,190 c 0,3.2635 -2.64559,5.90909 -5.90909,5.90909 -3.2635,0 -5.90909,-2.64559 -5.90909,-5.90909 0,-3.2635 2.64559,-5.90909 5.90909,-5.90909 3.2635,0 5.90909,2.64559 5.90909,5.90909 z"
       transform="matrix(0.59230744,0,0,0.59230744,-19.499934,569.96159)" />
  </g>
  <g
     transform="translate(-45.34375,-657.24)"
     id="g3872"
     inkscape:groupmode="layer"
     inkscape:label="Both Dark copy copy copy copy"
     style="display:none">
    <rect
       y="190.71555"
       x="-682.31757"
       height="150.19838"
       width="509.56195"
       id="rect3874"
       style="fill:#000000;fill-opacity:1;stroke:#262626;stroke-width:1;stroke-miterlimit:4;stroke-opacity:1;stroke-dasharray:none;stroke-dashoffset:0" />
    <path
       style="fill:#3c285a;fill-opacity:1;stroke:#3c285a;stroke-width:7;stroke-miterlimit:4;stroke-opacity:1;stroke-dasharray:none"
       d="m 99,749 0,3.5 0,-13.5 0,-20 40,0 20,0 0,-20 c 0,-20 -7.69304,-29.99 -20,-30 -12.30423,0.48039 -20,5.0748 -20,15.90035 L 113.94755,689 119,689 l 0,10 -20,0 -40,0 c 15.870756,15.36202 10,51.47509 40,50 z"
       id="path3876"
       inkscape:connector-curvature="0"
       sodipodi:nodetypes="ccccccccccccccc" />
    <path
       style="fill:#465a28;fill-opacity:1;stroke:#465a28;stroke-width:7;stroke-miterlimit:4;stroke-opacity:1;stroke-dasharray:none"
       d="m 159,749 15,0 c 25,1.08173 20.67308,-34.13025 35,-50 l -40,-0.0625 0,30.0625 -40,0 -20,0 0,20 10,0 -20,20 c 12.91151,14.79294 15.94486,10 35.90035,10 22.52289,-0.0957 19.69559,4.40406 34.09965,-10 l -20,-20 z"
       id="path3878"
       inkscape:connector-curvature="0"
       sodipodi:nodetypes="cccccccccccccc" />
    <path
       transform="matrix(0.59230744,0,0,0.59230744,-19.499934,569.96159)"
       d="m 265.90909,190 c 0,3.2635 -2.64559,5.90909 -5.90909,5.90909 -3.2635,0 -5.90909,-2.64559 -5.90909,-5.90909 0,-3.2635 2.64559,-5.90909 5.90909,-5.90909 3.2635,0 5.90909,2.64559 5.90909,5.90909 z"
       sodipodi:ry="5.9090934"
       sodipodi:rx="5.9090934"
       sodipodi:cy="190"
       sodipodi:cx="260"
       id="path3880"
       style="fill:#ffffff;fill-opacity:1;stroke:#ffffff;stroke-width:3.37662482;stroke-miterlimit:4;stroke-opacity:1;stroke-dasharray:none"
       sodipodi:type="arc" />
  </g>
  <g
     style="display:none"
     inkscape:label="Both Dark copy copy copy copy copy"
     inkscape:groupmode="layer"
     id="g3882"
     transform="translate(-45.34375,-657.24)">
    <path
       sodipodi:nodetypes="ccccccccccccccc"
       inkscape:connector-curvature="0"
       id="path3886"
       d="m 99,749 0,3.5 0,-13.5 0,-20 40,0 20,0 0,-20 c 0,-20 -7.69304,-29.99 -20,-30 -12.30423,0.48039 -20,5.0748 -20,15.90035 L 113.94755,689 119,689 l 0,10 -20,0 -40,0 c 15.870756,15.36202 10,51.47509 40,50 z"
       style="fill:#320b47;fill-opacity:1;stroke:#320b47;stroke-width:7;stroke-miterlimit:4;stroke-opacity:1;stroke-dasharray:none" />
    <path
       sodipodi:nodetypes="cccccccccccccc"
       inkscape:connector-curvature="0"
       id="path3888"
       d="m 159,749 15,0 c 25,1.08173 20.67308,-34.13025 35,-50 l -40,-0.0625 0,30.0625 -40,0 -20,0 0,20 10,0 -20,20 c 12.91151,14.79294 15.94486,10 35.90035,10 22.52289,-0.0957 19.69559,4.40406 34.09965,-10 l -20,-20 z"
       style="fill:#34600b;fill-opacity:1;stroke:#34600b;stroke-width:7;stroke-miterlimit:4;stroke-opacity:1;stroke-dasharray:none" />
    <path
       sodipodi:type="arc"
       style="fill:#ffffff;fill-opacity:1;stroke:#ffffff;stroke-width:3.37662482;stroke-miterlimit:4;stroke-opacity:1;stroke-dasharray:none"
       id="path3890"
       sodipodi:cx="260"
       sodipodi:cy="190"
       sodipodi:rx="5.9090934"
       sodipodi:ry="5.9090934"
       d="m 265.90909,190 c 0,3.2635 -2.64559,5.90909 -5.90909,5.90909 -3.2635,0 -5.90909,-2.64559 -5.90909,-5.90909 0,-3.2635 2.64559,-5.90909 5.90909,-5.90909 3.2635,0 5.90909,2.64559 5.90909,5.90909 z"
       transform="matrix(0.59230744,0,0,0.59230744,-19.499934,569.96159)" />
  </g>
  <g
     transform="translate(-45.34375,-657.24)"
     id="g3892"
     inkscape:groupmode="layer"
     inkscape:label="Both Dark copy copy copy copy copy copy"
     style="display:inline">
    <path
       style="fill:#320b47;fill-opacity:1;stroke:#320b47;stroke-width:7;stroke-miterlimit:4;stroke-opacity:1;stroke-dasharray:none"
       d="m 99,749 0,3.5 0,-13.5 0,-20 40,0 20,0 0,-20 c 0,-20 -7.69304,-29.99 -20,-30 -12.30423,0.48039 -20,5.0748 -20,15.90035 L 113.94755,689 119,689 l 0,10 -20,0 -40,0 c 15.870756,15.36202 10,51.47509 40,50 z"
       id="path3896"
       inkscape:connector-curvature="0"
       sodipodi:nodetypes="ccccccccccccccc" />
    <path
       style="fill:#366e01;fill-opacity:1;stroke:#366e01;stroke-width:7;stroke-miterlimit:4;stroke-opacity:1;stroke-dasharray:none"
       d="m 159,749 15,0 c 25,1.08173 20.67308,-34.13025 35,-50 l -40,-0.0625 0,30.0625 -40,0 -20,0 0,20 10,0 -20,20 c 10,9.99999 20,13.61588 35.90035,13.61589 C 149,782.61588 159,778.99999 169,769 l -20,-20 z"
       id="path3898"
       inkscape:connector-curvature="0"
       sodipodi:nodetypes="cccccccccccccc" />
    <path
       transform="matrix(0.59230744,0,0,0.59230744,-19.499934,569.96159)"
       d="m 265.90909,190 c 0,3.2635 -2.64559,5.90909 -5.90909,5.90909 -3.2635,0 -5.90909,-2.64559 -5.90909,-5.90909 0,-3.2635 2.64559,-5.90909 5.90909,-5.90909 3.2635,0 5.90909,2.64559 5.90909,5.90909 z"
       sodipodi:ry="5.9090934"
       sodipodi:rx="5.9090934"
       sodipodi:cy="190"
       sodipodi:cx="260"
       id="path3900"
       style="fill:#ffffff;fill-opacity:1;stroke:#ffffff;stroke-width:3.37662482;stroke-miterlimit:4;stroke-opacity:1;stroke-dasharray:none"
       sodipodi:type="arc" />
  </g>
  <g
     inkscape:groupmode="layer"
     id="layer2"
     inkscape:label="Words"
     transform="translate(3.65625,-8.2399991)"
     style="display:inline">
    <text
       xml:space="preserve"
       style="font-size:120px;font-style:normal;font-variant:normal;font-weight:normal;font-stretch:normal;line-height:125%;letter-spacing:0px;word-spacing:0px;fill:#000000;fill-opacity:1;stroke:#000000;stroke-width:4;stroke-miterlimit:4;stroke-opacity:1;stroke-dasharray:none;font-family:Corbel;-inkscape-font-specification:Avenir"
       x="168"
       y="105.96"
       id="text4376"
       sodipodi:linespacing="125%"><tspan
         sodipodi:role="line"
         id="tspan4378"
         x="168"
         y="105.96"
         style="font-size:120px;font-style:normal;font-variant:normal;font-weight:normal;font-stretch:normal;stroke:#000000;stroke-width:4;stroke-miterlimit:4;stroke-opacity:1;stroke-dasharray:none;font-family:Avenir;-inkscape-font-specification:Avenir">Pydgin</tspan></text>
  </g>
  <g
     style="display:none"
     inkscape:label="pastel"
     inkscape:groupmode="layer"
     id="g3052"
     transform="translate(-45.34375,-657.24)">
    <rect
       style="fill:#000000;fill-opacity:1;stroke:#262626;stroke-width:1;stroke-miterlimit:4;stroke-opacity:1;stroke-dasharray:none;stroke-dashoffset:0"
       id="rect3054"
       width="509.56195"
       height="150.19838"
       x="-682.31757"
       y="190.71555" />
    <path
       sodipodi:nodetypes="ccccccccccccccc"
       inkscape:connector-curvature="0"
       id="path3056"
       d="m 99,749 0,3.5 0,-13.5 0,-20 40,0 20,0 0,-20 c 0,-20 -7.69304,-29.99 -20,-30 -12.30423,0.48039 -20,5.0748 -20,15.90035 L 113.94755,689 119,689 l 0,10 -20,0 -40,0 c 15.870756,15.36202 10,51.47509 40,50 z"
       style="fill:#876b98;fill-opacity:1;stroke:#876b98;stroke-width:7;stroke-miterlimit:4;stroke-opacity:1;stroke-dasharray:none" />
    <path
       sodipodi:nodetypes="cccccccccccccc"
       inkscape:connector-curvature="0"
       id="path3058"
       d="m 159,749 15,0 c 25,1.08173 20.67308,-34.13025 35,-50 l -40,-0.0625 0,30.0625 -40,0 -20,0 0,20 10,0 -20,20 c 12.91151,14.79294 15.94486,10 35.90035,10 22.52289,-0.0957 19.69559,4.40406 34.09965,-10 l -20,-20 z"
       style="fill:#84b077;fill-opacity:1;stroke:#84b077;stroke-width:7;stroke-miterlimit:4;stroke-opacity:1;stroke-dasharray:none" />
    <path
       sodipodi:type="arc"
       style="fill:#ffffff;fill-opacity:1;stroke:#ffffff;stroke-width:3.37662482;stroke-miterlimit:4;stroke-opacity:1;stroke-dasharray:none"
       id="path3060"
       sodipodi:cx="260"
       sodipodi:cy="190"
       sodipodi:rx="5.9090934"
       sodipodi:ry="5.9090934"
       d="m 265.90909,190 c 0,3.2635 -2.64559,5.90909 -5.90909,5.90909 -3.2635,0 -5.90909,-2.64559 -5.90909,-5.90909 0,-3.2635 2.64559,-5.90909 5.90909,-5.90909 3.2635,0 5.90909,2.64559 5.90909,5.90909 z"
       transform="matrix(0.59230744,0,0,0.59230744,-19.499934,569.96159)" />
  </g>
  <g
     transform="translate(-45.34375,-657.24)"
     id="g3946"
     inkscape:groupmode="layer"
     inkscape:label="Head upsidedown"
     style="display:none"
     sodipodi:insensitive="true">
    <rect
       y="190.71555"
       x="-682.31757"
       height="150.19838"
       width="509.56195"
       id="rect3948"
       style="fill:#000000;fill-opacity:1;stroke:#262626;stroke-width:1;stroke-miterlimit:4;stroke-opacity:1;stroke-dasharray:none;stroke-dashoffset:0" />
    <path
       style="fill:#679801;fill-opacity:1;stroke:#679801;stroke-width:7;stroke-miterlimit:4;stroke-opacity:1;stroke-dasharray:none"
       d="m 169,699 0,-3.5 0,13.5 0,20 -40,0 -20,0 0,20 c 0,20 7.69304,29.99 20,30 12.30423,-0.48039 20,-5.0748 20,-15.90035 L 154.05245,759 149,759 l 0,-10 20,0 40,0 c -15.87076,-15.36202 -10,-51.47509 -40,-50 z"
       id="path3950"
       inkscape:connector-curvature="0"
       sodipodi:nodetypes="ccccccccccccccc" />
    <path
       transform="matrix(-0.59230744,0,0,-0.59230744,287.49993,878.03841)"
       d="m 265.90909,190 c 0,3.2635 -2.64559,5.90909 -5.90909,5.90909 -3.2635,0 -5.90909,-2.64559 -5.90909,-5.90909 0,-3.2635 2.64559,-5.90909 5.90909,-5.90909 3.2635,0 5.90909,2.64559 5.90909,5.90909 z"
       sodipodi:ry="5.9090934"
       sodipodi:rx="5.9090934"
       sodipodi:cy="190"
       sodipodi:cx="260"
       id="path3952"
       style="fill:#ffffff;fill-opacity:1;stroke:#ffffff;stroke-width:3.37662482;stroke-miterlimit:4;stroke-opacity:1;stroke-dasharray:none"
       sodipodi:type="arc" />
  </g>
  <g
     style="display:none"
     inkscape:label="Head"
     inkscape:groupmode="layer"
     id="g3887"
     transform="translate(-45.34375,-657.24)">
    <rect
       style="fill:#000000;fill-opacity:1;stroke:#262626;stroke-width:1;stroke-miterlimit:4;stroke-opacity:1;stroke-dasharray:none;stroke-dashoffset:0"
       id="rect3889"
       width="509.56195"
       height="150.19838"
       x="-682.31757"
       y="190.71555" />
    <path
       sodipodi:nodetypes="ccccccccccccccc"
       inkscape:connector-curvature="0"
       id="path3891"
       d="m 99,749 0,3.5 0,-13.5 0,-20 40,0 20,0 0,-20 c 0,-20 -7.69304,-29.99 -20,-30 -12.30423,0.48039 -20,5.0748 -20,15.90035 L 113.94755,689 119,689 l 0,10 -20,0 -40,0 c 15.870756,15.36202 10,51.47509 40,50 z"
       style="fill:#711a7c;fill-opacity:1;stroke:#711a7c;stroke-width:7;stroke-miterlimit:4;stroke-opacity:1;stroke-dasharray:none" />
    <path
       sodipodi:type="arc"
       style="fill:#ffffff;fill-opacity:1;stroke:#ffffff;stroke-width:3.37662482;stroke-miterlimit:4;stroke-opacity:1;stroke-dasharray:none"
       id="path3895"
       sodipodi:cx="260"
       sodipodi:cy="190"
       sodipodi:rx="5.9090934"
       sodipodi:ry="5.9090934"
       d="m 265.90909,190 c 0,3.2635 -2.64559,5.90909 -5.90909,5.90909 -3.2635,0 -5.90909,-2.64559 -5.90909,-5.90909 0,-3.2635 2.64559,-5.90909 5.90909,-5.90909 3.2635,0 5.90909,2.64559 5.90909,5.90909 z"
       transform="matrix(0.59230744,0,0,0.59230744,-19.499934,569.96159)" />
  </g>
  <g
     inkscape:groupmode="layer"
     id="layer3"
     inkscape:label="Tail"
     style="display:none"
     transform="translate(3.65625,-8.2399991)">
    <path
       sodipodi:nodetypes="cccccccccccccc"
       inkscape:connector-curvature="0"
       id="path3893"
       d="m 110,100 15,0 c 25,1.08173 20.67308,-34.130245 35,-50 L 120,49.9375 120,80 l -40,0 -20,0 0,20 10,0 -20,20 c 12.911511,14.79294 15.944858,10 35.90035,10 22.52289,-0.0957 19.69559,4.40406 34.09965,-10 l -20,-20 z"
       style="fill:#9ac728;fill-opacity:1;stroke:#9ac728;stroke-width:7;stroke-miterlimit:4;stroke-opacity:1;stroke-dasharray:none;display:inline" />
  </g>
</svg>
